<svg id="Layer_1" enable-background="new 0 0 510 510" height="512" viewBox="0 0 510 510" width="512" xmlns="http://www.w3.org/2000/svg"><g><path d="m30 0v436c0 40.803 33.195 74 74 74h106l15-255-15-255c-10 0-170 0-180 0z" fill="#fbf4f4"/><path d="m435 510-45-375c0-16.333 0-118.559 0-135-10 0-170 0-180 0v510z" fill="#dee0f6"/><path d="m390 135v330c0 24.852 20.147 45 45 45 29.121-1.483 45-23.127 45-45 0-18.326 0-311.674 0-330-10.889 0-79.039 0-90 0z" fill="#b3b7ef"/><path d="m210 315c-14.518 0-105.387 0-120 0 0-14.518 0-105.386 0-120h120z" fill="#bee75e"/><g><g><path d="m330 435c-14.518 0-105.387 0-120 0 0-10.492 0-19.508 0-30h120z" fill="#7dc0f5"/></g></g><g><g><path d="m330 315c-10.889 0-79.039 0-90 0 0-10.492 0-19.508 0-30h90z" fill="#7dc0f5"/></g></g><g><g><path d="m330 255c-10.889 0-79.039 0-90 0 0-10.492 0-19.508 0-30h90z" fill="#7dc0f5"/></g></g><path d="m90 75v75h120l15-37.5-15-37.5c-14.518 0-105.387 0-120 0z" fill="#ff6b6b"/><path d="m330 75c-14.518 0-105.387 0-120 0v75h120c0-20.194 0-63.236 0-75z" fill="#ff3d7d"/><path d="m90 345v30h120l15-15-15-15c-14.518 0-105.387 0-120 0z" fill="#a0e4fa"/><path d="m330 345c-14.518 0-105.387 0-120 0v30h120c0-10.492 0-19.508 0-30z" fill="#7dc0f5"/></g></svg>