<?xml version="1.0"?>
<svg xmlns="http://www.w3.org/2000/svg" xmlns:xlink="http://www.w3.org/1999/xlink" xmlns:svgjs="http://svgjs.com/svgjs" version="1.1" width="512" height="512" x="0" y="0" viewBox="0 0 409 409.2" style="enable-background:new 0 0 512 512" xml:space="preserve" class=""><g><path xmlns="http://www.w3.org/2000/svg" d="m241 88.699219c0 48.988281-39.710938 88.699219-88.699219 88.699219s-88.699219-39.710938-88.699219-88.699219 39.710938-88.699219 88.699219-88.699219 88.699219 39.710938 88.699219 88.699219zm0 0" fill="#0e7cdd" data-original="#000000" style="" class=""/><path xmlns="http://www.w3.org/2000/svg" d="m152.199219 235.199219c-41.097657.101562-79.398438 16.101562-107.699219 45.101562-27.199219 28-42.898438 65.699219-44.398438 107l240.199219-.5v-123.699219c-25.597656-18.316406-56.324219-28.082031-87.800781-27.902343zm0 0" fill="#0e7cdd" data-original="#000000" style="" class=""/><path xmlns="http://www.w3.org/2000/svg" d="m398.101562 234.101562h-14.300781c-7.832031.027344-14.171875 6.367188-14.199219 14.199219v35.199219h18.097657c8.542969-.042969 15.457031-6.957031 15.5-15.5v-19.800781c.101562-14.097657-1.398438-14.097657-5.097657-14.097657zm0 0" fill="#0e7cdd" data-original="#000000" style="" class=""/><path xmlns="http://www.w3.org/2000/svg" d="m254.300781 248.300781v160.898438l48.5-43.597657c2.742188-2.496093 6.960938-2.410156 9.597657.199219l43.300781 42.699219v-160.199219c0-4.984375 1.3125-9.882812 3.800781-14.199219h-91c-3.765625-.003906-7.378906 1.492188-10.042969 4.15625-2.664062 2.660157-4.160156 6.273438-4.15625 10.042969zm0 0" fill="#0e7cdd" data-original="#000000" style="" class=""/></g></svg>
